# Blender v2.92.0 OBJ File: ''
# www.blender.org
mtllib alien.mtl
o alien
v 0.130000 0.136866 -0.010696
v 0.130000 0.340000 0.055796
v 0.130000 0.311118 -0.055796
v 0.130000 0.165748 0.100896
v 0.181592 0.165748 0.100896
v 0.181592 0.136866 -0.010696
v 0.241592 0.194952 -0.025730
v 0.241592 0.311118 -0.055796
v 0.241592 0.223834 0.085862
v 0.241592 0.340000 0.055796
v 0.130000 0.473184 -0.055796
v 0.185796 0.473184 0.055796
v 0.185796 0.473184 -0.055796
v 0.130000 0.473184 0.055796
v 0.241592 0.417388 -0.055796
v 0.241592 0.417388 0.055796
v -0.130000 0.340000 0.055796
v -0.130000 0.136866 -0.010696
v -0.130000 0.311118 -0.055796
v -0.130000 0.165748 0.100896
v -0.181592 0.136866 -0.010696
v -0.241592 0.194952 -0.025730
v -0.241592 0.311118 -0.055796
v -0.241592 0.223834 0.085862
v -0.181592 0.165748 0.100896
v -0.241592 0.340000 0.055796
v -0.130000 0.473184 0.055796
v -0.241592 0.417388 0.055796
v -0.185796 0.473184 0.055796
v -0.241592 0.417388 -0.055796
v -0.130000 0.473184 -0.055796
v -0.185796 0.473184 -0.055796
v -0.130000 0.223184 0.100000
v 0.130000 0.223184 -0.100000
v 0.130000 0.223184 0.100000
v -0.130000 0.223184 -0.100000
v 0.130000 0.284202 0.100000
v -0.130000 0.284202 0.100000
v 0.030000 0.284202 0.100000
v -0.030000 0.284202 0.100000
v -0.130000 0.284202 -0.100000
v 0.130000 0.284202 -0.100000
v -0.100000 0.284202 -0.100000
v 0.100000 0.284202 -0.100000
v 0.130000 0.284202 0.000000
v -0.130000 0.284202 0.000000
v 0.030000 0.383184 0.130000
v 0.030000 0.433184 0.100000
v 0.030000 0.433184 0.130000
v -0.030000 0.433184 0.130000
v -0.030000 0.433184 0.100000
v -0.030000 0.383184 0.130000
v 0.100000 0.284202 -0.150000
v -0.100000 0.284202 -0.150000
v -0.100000 0.334202 -0.200000
v 0.100000 0.334202 -0.200000
v -0.100000 0.533184 -0.200000
v 0.100000 0.533184 -0.200000
v 0.130000 0.383184 0.130000
v 0.130000 0.383184 0.000000
v -0.130000 0.383184 0.130000
v -0.100000 0.533184 -0.100000
v -0.100000 0.483184 -0.100000
v 0.100000 0.533184 -0.100000
v 0.100000 0.483184 -0.100000
v -0.130000 0.383184 0.000000
v 0.130000 0.483184 0.130000
v -0.130000 0.483184 0.130000
v 0.130000 0.483184 -0.100000
v -0.130000 0.483184 -0.100000
v 0.130000 0.483184 -0.130000
v -0.130000 0.483184 -0.130000
v 0.130000 0.743184 0.130000
v 0.130000 0.633184 -0.020000
v 0.130000 0.743184 -0.130000
v 0.130000 0.633184 0.020000
v 0.130000 0.543184 0.020000
v 0.130000 0.543184 -0.020000
v -0.130000 0.743184 -0.130000
v -0.130000 0.543184 -0.020000
v -0.130000 0.543184 0.020000
v -0.130000 0.633184 0.020000
v -0.130000 0.633184 -0.020000
v -0.130000 0.743184 0.130000
v 0.190000 0.621934 0.020000
v 0.190000 0.554434 -0.020000
v 0.190000 0.621934 -0.020000
v 0.190000 0.554434 0.020000
v -0.190000 0.621934 -0.020000
v -0.190000 0.621934 0.020000
v -0.190000 0.554434 0.020000
v -0.190000 0.554434 -0.020000
v 0.105000 0.743184 0.080000
v 0.080000 0.743184 0.080000
v 0.080000 0.743184 0.105000
v -0.080000 0.743184 0.080000
v -0.105000 0.743184 0.080000
v -0.105000 0.743184 0.105000
v 0.105000 0.743184 0.105000
v -0.080000 0.743184 0.105000
v 0.034830 0.514051 0.130000
v 0.092483 0.565843 0.130000
v 0.034830 0.538326 0.130000
v -0.034831 0.538326 0.130000
v 0.092483 0.625979 0.130000
v 0.032347 0.625979 0.130000
v -0.032347 0.625979 0.130000
v -0.092483 0.625979 0.130000
v -0.034831 0.514051 0.130000
v -0.092483 0.565843 0.130000
v 0.032347 0.565843 0.130000
v -0.032347 0.565843 0.130000
v -0.105000 0.843184 0.080000
v -0.080000 0.843184 0.105000
v -0.080000 0.843184 0.080000
v -0.105000 0.843184 0.105000
v 0.080000 0.843184 0.080000
v 0.105000 0.843184 0.105000
v 0.105000 0.843184 0.080000
v 0.080000 0.843184 0.105000
v 0.130000 0.223184 0.055796
v 0.130000 0.128834 -0.054251
v 0.130000 0.223184 -0.055796
v 0.130000 0.128834 0.065796
v 0.018408 0.128834 0.065796
v 0.018408 0.223184 0.055796
v 0.018408 0.223184 -0.055796
v 0.018408 0.128834 -0.054251
v 0.130000 0.068968 0.100000
v 0.018408 -0.000000 0.100000
v 0.130000 -0.000000 0.100000
v 0.018408 0.068968 0.100000
v 0.130000 0.034484 -0.072706
v 0.018408 0.034484 -0.072706
v 0.130000 0.000000 -0.075796
v 0.018408 0.000000 -0.075796
v 0.018408 0.068968 0.055796
v 0.130000 0.068968 0.055796
v -0.018408 0.128834 0.065796
v -0.130000 0.068968 0.055796
v -0.018408 0.068968 0.055796
v -0.130000 0.128834 0.065796
v -0.018408 0.068968 0.100000
v -0.130000 -0.000000 0.100000
v -0.018408 -0.000000 0.100000
v -0.130000 0.068968 0.100000
v -0.130000 0.034484 -0.072706
v -0.018408 0.000000 -0.075796
v -0.130000 0.000000 -0.075796
v -0.018408 0.034484 -0.072706
v -0.130000 0.128834 -0.054251
v -0.018408 0.128834 -0.054251
v -0.130000 0.223184 -0.055796
v -0.018408 0.223184 0.055796
v -0.018408 0.223184 -0.055796
v -0.130000 0.223184 0.055796
vt -0.490582 -15.425050
vt 2.559055 -6.108416
vt -2.559055 -7.433081
vt 4.627528 -14.100380
vt 2.366241 0.946880
vt 0.000000 -4.339876
vt 2.366241 -4.339876
vt 0.000000 0.946880
vt -0.000000 -6.554764
vt -2.366241 -14.810070
vt -0.000000 -14.810070
vt -5.118110 -12.058200
vt -5.118110 -6.554764
vt -2.575973 -4.282917
vt 1.050985 -9.754712
vt 2.388665 -6.100101
vt -3.913653 -7.937529
vt 5.118110 -12.058200
vt 0.000000 -14.810070
vt 2.366241 -14.810070
vt 0.000000 -6.554764
vt 5.118110 -6.554764
vt -2.559055 -6.108416
vt 1.180098 -12.760960
vt 2.559055 -7.433081
vt -3.938012 -11.436300
vt -2.196693 -5.243464
vt 0.421116 -13.240860
vt 2.196693 -6.380557
vt -3.972270 -12.103770
vt 2.031181 -12.712970
vt 0.000000 -5.626609
vt 0.000000 -12.712970
vt 4.393386 -10.350760
vt 4.393386 -5.626609
vt -0.902165 -8.373445
vt 2.211215 -3.676456
vt -2.050430 -5.236327
vt 3.359480 -6.813574
vt -2.031181 0.812802
vt -0.000000 -3.725349
vt -0.000000 0.812802
vt -2.031181 -3.725349
vt -0.000000 -5.626609
vt -2.031181 -12.712970
vt -0.000000 -12.712970
vt -4.393386 -10.350760
vt -4.393386 -5.626609
vt -1.012996 -10.954010
vt 2.196693 -5.243464
vt -2.196693 -6.380557
vt 3.380389 -9.816917
vt -19.685040 19.685040
vt 19.685040 -19.685040
vt 19.685040 19.685040
vt -19.685040 -19.685040
vt -19.685040 39.370079
vt 3.028468 22.713511
vt 19.685040 39.370079
vt -3.028468 22.713511
vt -3.028468 9.085402
vt 3.028468 9.085402
vt 19.685040 0.000000
vt -19.685040 0.000000
vt 19.685040 39.370079
vt -19.685040 0.000000
vt 19.685040 0.000000
vt -19.685040 39.370079
vt -19.685040 -0.000000
vt -3.028468 9.085402
vt -19.685040 39.370079
vt 19.685040 -0.000000
vt 3.028468 9.085402
vt 3.028468 22.713511
vt -3.028468 22.713511
vt 19.685040 39.370079
vt -3.028468 21.009991
vt 3.028468 10.788920
vt 3.028468 21.009991
vt -3.028468 10.788920
vt -19.685040 22.713511
vt -28.770439 10.788920
vt -19.685040 9.085402
vt -28.770439 21.009991
vt -3.028468 21.022209
vt 3.028468 30.265940
vt -3.028468 30.265940
vt 3.028468 21.022209
vt 3.028468 -15.162040
vt -3.028468 -24.405769
vt 3.028468 -24.405769
vt -3.028468 -15.162040
vt 28.770439 10.788920
vt 19.685040 22.713511
vt 19.685040 9.085402
vt 28.770439 21.009991
vt -3.028468 -24.405769
vt 3.028468 -15.162040
vt -3.028468 -15.162040
vt 3.028468 -24.405769
vt -19.685040 22.713511
vt -28.770439 10.788920
vt -19.685040 9.085402
vt -28.770439 21.009991
vt 28.770439 10.788920
vt 19.685040 22.713511
vt 19.685040 9.085402
vt 28.770439 21.009991
vt 3.028468 10.788920
vt -3.028468 21.009991
vt -3.028468 10.788920
vt 3.028468 21.009991
vt 3.028468 30.265940
vt -3.028468 21.022209
vt 3.028468 21.022209
vt -3.028468 30.265940
vt -19.685040 -19.685040
vt -15.899460 12.113870
vt -19.685040 19.685040
vt 19.685040 -19.685040
vt -12.113870 12.113870
vt -12.113870 15.899460
vt 12.113870 12.113870
vt 15.899460 12.113870
vt 15.899460 15.899460
vt -15.899460 15.899460
vt 19.685040 19.685040
vt 12.113870 15.899460
vt 19.685040 0.000000
vt 5.274151 4.674063
vt -19.685040 0.000000
vt 14.004100 12.516510
vt 19.685040 39.370079
vt 5.274151 8.349802
vt -5.274151 8.349802
vt 14.004100 21.622450
vt 4.898160 21.622450
vt -4.898160 21.622450
vt -14.004100 21.622450
vt -5.274151 4.674063
vt -14.004100 12.516510
vt -19.685040 39.370079
vt 4.898160 12.516510
vt -4.898160 12.516510
vt 15.899460 12.113870
vt 12.113870 15.899460
vt 12.113870 12.113870
vt 15.899460 15.899460
vt -12.113870 54.512421
vt -15.899460 39.370079
vt -12.113870 39.370079
vt -15.899460 54.512421
vt -15.899460 54.512421
vt -12.113870 39.370079
vt -12.113870 54.512421
vt -15.899460 39.370079
vt 15.899460 54.512421
vt 12.113870 39.370079
vt 15.899460 39.370079
vt 12.113870 54.512421
vt 15.899460 39.370079
vt 12.113870 54.512421
vt 12.113870 39.370079
vt 15.899460 54.512421
vt -12.113870 12.113870
vt -15.899460 15.899460
vt -15.899460 12.113870
vt -12.113870 15.899460
vt -15.899460 54.512421
vt -12.113870 39.370079
vt -12.113870 54.512421
vt -15.899460 39.370079
vt -12.113870 54.512421
vt -15.899460 39.370079
vt -12.113870 39.370079
vt -15.899460 54.512421
vt 15.899460 39.370079
vt 12.113870 54.512421
vt 12.113870 39.370079
vt 15.899460 54.512421
vt 15.899460 54.512421
vt 12.113870 39.370079
vt 15.899460 39.370079
vt 12.113870 54.512421
vt -0.000000 -2.559055
vt -2.559055 2.559055
vt -2.559055 -2.559055
vt 0.000000 2.559055
vt -2.559055 -1.809525
vt 2.559055 -5.428576
vt 2.559055 -1.809525
vt -2.559055 -5.428576
vt -2.196693 -4.659889
vt 2.196693 -1.553296
vt -2.196693 -1.553296
vt 2.196693 -4.659889
vt 0.000000 -2.196693
vt 2.196693 2.196693
vt 0.000000 2.196693
vt 2.196693 -2.196693
vt -5.118110 6.299212
vt 0.000000 2.402281
vt 0.000000 6.299212
vt -3.937008 2.402281
vt 1.181102 8.267716
vt -1.181102 2.402281
vt 1.181102 2.402281
vt -1.181102 8.267716
vt -1.181102 7.512944
vt -5.118110 3.440957
vt -1.181102 3.440957
vt -5.118110 7.512944
vt 5.118110 7.512944
vt 1.181102 3.440957
vt 5.118110 3.440957
vt 1.181102 7.512944
vt -5.905512 2.402281
vt -7.874016 12.204720
vt -7.874016 4.370785
vt -3.937008 12.204720
vt -3.937008 2.402281
vt -3.937008 10.236220
vt 3.937008 12.204720
vt 7.874016 4.370785
vt 7.874016 12.204720
vt 5.905512 2.402281
vt 3.937008 2.402281
vt 3.937008 10.236220
vt 3.937008 -7.874016
vt -3.937008 -3.937008
vt -3.937008 -7.874016
vt 3.937008 -3.937008
vt 3.937008 2.402281
vt 0.000000 6.299212
vt 0.000000 2.402281
vt 5.118110 6.299212
vt -4.393386 3.937008
vt 0.000000 -2.984094
vt 0.000000 3.937008
vt -4.393386 -2.984094
vt -0.000000 4.586449
vt 5.118110 -3.476345
vt 5.118110 4.586449
vt -0.000000 -3.476345
vt 5.118110 -2.559055
vt 0.000000 -6.108416
vt 5.118110 -6.108416
vt 0.000000 0.000000
vt 2.559055 0.000000
vt -2.559055 -2.559055
vt 2.559055 -2.559055
vt -0.000000 0.000000
vt -5.118110 -7.433081
vt -0.000000 -7.433081
vt -5.118110 -2.559055
vt -2.559055 0.000000
vt 2.559055 0.000000
vt -2.559055 0.000000
vt -0.000000 0.000000
vt -4.393386 -5.243464
vt -0.000000 -5.243464
vt -4.393386 -2.196693
vt -2.196693 0.000000
vt -2.196693 -2.196693
vt 2.196693 -2.196693
vt 4.393386 -2.196693
vt 0.000000 -6.380557
vt 4.393386 -6.380557
vt 0.000000 0.000000
vt 2.196693 0.000000
vt -2.196693 0.000000
vt 2.196693 0.000000
vt 5.118110 10.236220
vt 1.181102 6.299212
vt 5.118110 6.299212
vt 1.181102 8.267716
vt -1.181102 8.267716
vt -5.118110 10.236220
vt -5.118110 6.299212
vt -1.181102 6.299212
vt -3.937008 -3.937008
vt -5.118110 5.118110
vt -5.118110 -3.937008
vt 5.118110 5.118110
vt 3.937008 -3.937008
vt 5.118110 -3.937008
vt 5.118110 10.236220
vt 3.937008 2.402281
vt 5.118110 2.402281
vt 3.937008 10.236220
vt -3.937008 10.236220
vt -5.118110 2.402281
vt -3.937008 2.402281
vt -5.118110 10.236220
vt -3.937008 10.236220
vt -3.937008 2.402281
vt 5.118110 10.236220
vt 3.937008 10.236220
vt 3.937008 2.402281
vt -5.118110 10.236220
vt -5.118110 3.937008
vt 5.118110 -3.937008
vt 5.118110 3.937008
vt -5.118110 -3.937008
vt 5.118110 2.402281
vt -5.118110 0.000000
vt 5.118110 0.000000
vt -5.118110 2.402281
vt -5.118110 0.000000
vt 5.118110 0.000000
vt 3.937008 0.000000
vt -3.937008 0.000000
vt 3.937008 0.000000
vt -3.937008 0.000000
vt 5.118110 6.299212
vt 3.937008 8.267716
vt 3.937008 2.402281
vt 5.118110 8.267716
vt -5.118110 8.267716
vt -3.937008 2.402281
vt -3.937008 8.267716
vt -5.118110 6.299212
vt -1.181102 5.118110
vt 1.181102 3.937008
vt 1.181102 5.118110
vt -1.181102 3.937008
vt -3.937008 -3.937008
vt 3.937008 -5.905512
vt 3.937008 -3.937008
vt -3.937008 -5.905512
vt 3.937008 8.658381
vt -3.937008 5.874496
vt 3.937008 5.874496
vt -3.937008 8.658381
vt 3.937008 12.204720
vt -3.937008 4.370785
vt 3.937008 4.370785
vt -3.937008 12.204720
vt -2.196693 0.000000
vt 2.135863 -3.714570
vt 2.196693 0.000000
vt -2.590394 -3.714570
vt -0.000000 -0.231527
vt -4.393386 -3.966903
vt -0.000000 -3.966903
vt -4.393386 -0.231527
vt 4.393386 -2.196693
vt 0.000000 2.196693
vt 0.000000 -2.196693
vt 4.393386 2.196693
vt 4.393386 0.035968
vt 0.000000 -3.679100
vt 4.393386 -3.679100
vt 0.000000 0.035968
vt -2.135863 -3.714570
vt 2.196693 0.000000
vt -2.196693 0.000000
vt 2.590394 -3.714570
vt 0.000000 -2.559055
vt -5.118110 2.559055
vt -5.118110 -2.559055
vt 0.000000 2.559055
vt 0.000000 0.041902
vt -5.118110 -4.285997
vt 0.000000 -4.285997
vt -5.118110 0.041902
vt 5.118110 -0.269719
vt -0.000000 -4.621275
vt 5.118110 -4.621275
vt -0.000000 -0.269719
vt -2.488191 -4.327319
vt 2.559055 0.000000
vt -2.559055 0.000000
vt 3.017700 -4.327319
vt -2.559055 0.000000
vt 2.488191 -4.327319
vt 2.559055 0.000000
vt -3.017700 -4.327319
vt 0.000000 -6.071510
vt -4.393386 -8.786772
vt 0.000000 -8.786772
vt -4.393386 -6.071510
vt 4.393386 -4.055493
vt 0.000000 -7.840456
vt 4.393386 -7.840456
vt 0.000000 -4.055493
vt 4.393386 -7.654975
vt -0.000000 -9.018046
vt 4.393386 -9.018046
vt -0.000000 -7.654975
vt 3.937008 -8.786772
vt -2.862434 -7.429141
vt -2.984094 -8.786772
vt 2.196693 -6.071510
vt 3.937008 -6.071510
vt -0.000000 -3.237025
vt -4.393386 -5.626619
vt -0.000000 -5.626619
vt -4.393386 -3.237025
vt 4.393386 2.196693
vt -0.000000 3.937008
vt -0.000000 2.196693
vt 4.393386 3.937008
vt -2.196693 -6.071510
vt -3.937008 -8.786772
vt 2.862434 -7.429141
vt 2.984094 -8.786772
vt -3.937008 -6.071510
vt 5.118110 -3.770998
vt -0.000000 -6.554776
vt 5.118110 -6.554776
vt -0.000000 -3.770998
vt 5.118110 -7.073054
vt -0.000000 -10.236220
vt 5.118110 -10.236220
vt -0.000000 -7.073054
vt 0.000000 -8.917725
vt -5.118110 -10.505650
vt 0.000000 -10.505650
vt -5.118110 -8.917725
vt 0.000000 -4.724480
vt -5.118110 -9.133802
vt 0.000000 -9.133802
vt -5.118110 -4.724480
vt 4.586449 -10.236220
vt -3.334616 -8.654637
vt -3.476345 -10.236220
vt 2.559055 -7.073054
vt 4.586449 -7.073054
vt -2.559055 -7.073054
vt -4.586449 -10.236220
vt 3.334616 -8.654637
vt 3.476345 -10.236220
vt -4.586449 -7.073054
vt 0.000000 2.559055
vt -5.118110 4.586449
vt -5.118110 2.559055
vt 0.000000 4.586449
vn -1.0000 0.0000 0.0000
vn 0.0000 -0.9681 0.2506
vn -0.0000 -0.2506 -0.9681
vn 0.7071 -0.6845 0.1772
vn -0.0000 0.2506 0.9681
vn 1.0000 0.0000 0.0000
vn -0.7071 -0.6845 0.1772
vn -0.7071 -0.6846 0.1772
vn 0.0000 -1.0000 -0.0000
vn 0.0000 0.0000 -1.0000
vn 0.1843 -0.9829 0.0000
vn 0.1843 0.9829 0.0000
vn 0.0000 -0.0000 1.0000
vn -0.1843 0.9829 0.0000
vn -0.1843 -0.9829 0.0000
vn 0.0000 1.0000 0.0000
vn 0.7071 0.7071 0.0000
vn -0.7071 0.7071 0.0000
vn 0.0000 -0.2901 0.9570
vn 0.0000 0.0000 0.0000
vn -0.0000 0.0003 -1.0000
vn 0.0000 -0.7071 -0.7071
vn 0.0000 0.1054 0.9944
vn 0.0000 -0.0164 -0.9999
vn 0.0000 0.1920 -0.9814
vn 0.0000 0.0893 -0.9960
vn 0.0000 -0.1648 0.9863
usemtl crystal
s 1
f 1/1/1 2/2/1 3/3/1
f 2/2/1 1/1/1 4/4/1
f 5/5/2 1/6/2 6/7/2
f 1/6/2 5/5/2 4/8/2
f 3/9/3 6/10/3 1/11/3
f 6/10/3 3/9/3 7/12/3
f 7/12/3 3/9/3 8/13/3
f 9/14/4 6/15/4 7/16/4
f 6/15/4 9/14/4 5/17/4
f 9/18/5 4/19/5 5/20/5
f 4/19/5 9/18/5 2/21/5
f 2/21/5 9/18/5 10/22/5
f 10/23/6 7/24/6 8/25/6
f 7/24/6 10/23/6 9/26/6
f 17/27/6 18/28/6 19/29/6
f 18/28/6 17/27/6 20/30/6
f 21/31/3 19/32/3 18/33/3
f 19/32/3 21/31/3 22/34/3
f 19/32/3 22/34/3 23/35/3
f 21/36/7 24/37/7 22/38/7
f 24/37/7 21/36/7 25/39/8
f 25/40/2 18/41/2 20/42/2
f 18/41/2 25/40/2 21/43/2
f 17/44/5 25/45/5 20/46/5
f 25/45/5 17/44/5 24/47/5
f 24/47/5 17/44/5 26/48/5
f 22/49/1 26/50/1 23/51/1
f 26/50/1 22/49/1 24/52/1
f 68/53/9 71/54/9 67/55/9
f 71/54/9 68/53/9 72/56/9
f 73/57/6 74/58/6 75/59/6
f 74/58/6 73/57/6 76/60/6
f 76/60/6 73/57/6 77/61/6
f 78/62/6 75/59/6 74/58/6
f 78/62/6 71/63/6 75/59/6
f 71/63/6 78/62/6 67/64/6
f 67/64/6 78/62/6 77/61/6
f 67/64/6 77/61/6 73/57/6
f 79/65/10 71/66/10 72/67/10
f 71/66/10 79/65/10 75/68/10
f 72/69/1 80/70/1 79/71/1
f 80/70/1 72/69/1 68/72/1
f 80/70/1 68/72/1 81/73/1
f 81/73/1 68/72/1 82/74/1
f 83/75/1 79/71/1 80/70/1
f 79/71/1 83/75/1 84/76/1
f 84/76/1 83/75/1 82/74/1
f 84/76/1 82/74/1 68/72/1
f 85/77/6 86/78/6 87/79/6
f 86/78/6 85/77/6 88/80/6
f 74/81/10 86/82/10 78/83/10
f 86/82/10 74/81/10 87/84/10
f 77/85/11 86/86/11 88/87/11
f 86/86/11 77/85/11 78/88/11
f 74/89/12 85/90/12 87/91/12
f 85/90/12 74/89/12 76/92/12
f 88/93/13 76/94/13 77/95/13
f 76/94/13 88/93/13 85/96/13
f 89/97/14 82/98/14 83/99/14
f 82/98/14 89/97/14 90/100/14
f 82/101/13 91/102/13 81/103/13
f 91/102/13 82/101/13 90/104/13
f 92/105/10 83/106/10 80/107/10
f 83/106/10 92/105/10 89/108/10
f 91/109/1 89/110/1 92/111/1
f 89/110/1 91/109/1 90/112/1
f 91/113/15 80/114/15 81/115/15
f 80/114/15 91/113/15 92/116/15
f 75/117/16 93/118/16 73/119/16
f 93/118/16 75/117/16 79/120/16
f 93/118/16 79/120/16 94/121/16
f 94/121/16 79/120/16 95/122/16
f 95/122/16 79/120/16 96/123/16
f 96/123/16 79/120/16 97/124/16
f 97/124/16 79/120/16 98/125/16
f 99/126/16 73/119/16 93/118/16
f 73/119/16 99/126/16 84/127/16
f 84/127/16 99/126/16 95/122/16
f 84/127/16 98/125/16 79/120/16
f 84/127/16 95/122/16 100/128/16
f 100/128/16 95/122/16 96/123/16
f 84/127/16 100/128/16 98/125/16
f 67/129/13 101/130/13 68/131/13
f 101/130/13 67/129/13 102/132/13
f 102/132/13 67/129/13 73/133/13
f 101/130/13 102/132/13 103/134/13
f 103/134/13 102/132/13 104/135/13
f 102/132/13 73/133/13 105/136/13
f 105/136/13 73/133/13 106/137/13
f 106/137/13 73/133/13 107/138/13
f 107/138/13 73/133/13 108/139/13
f 109/140/13 68/131/13 101/130/13
f 110/141/13 68/131/13 109/140/13
f 110/141/13 109/140/13 104/135/13
f 68/131/13 110/141/13 84/142/13
f 84/142/13 110/141/13 108/139/13
f 84/142/13 108/139/13 73/133/13
f 110/141/13 104/135/13 111/143/13
f 111/143/13 104/135/13 102/132/13
f 110/141/13 111/143/13 112/144/13
f 106/137/13 112/144/13 111/143/13
f 112/144/13 106/137/13 107/138/13
f 113/145/16 114/146/16 115/147/16
f 114/146/16 113/145/16 116/148/16
f 114/149/13 98/150/13 100/151/13
f 98/150/13 114/149/13 116/152/13
f 114/153/6 96/154/6 115/155/6
f 96/154/6 114/153/6 100/156/6
f 113/157/10 96/158/10 97/159/10
f 96/158/10 113/157/10 115/160/10
f 98/161/1 113/162/1 97/163/1
f 113/162/1 98/161/1 116/164/1
f 117/165/16 118/166/16 119/167/16
f 118/166/16 117/165/16 120/168/16
f 118/169/6 93/170/6 119/171/6
f 93/170/6 118/169/6 99/172/6
f 117/173/10 93/174/10 94/175/10
f 93/174/10 117/173/10 119/176/10
f 95/177/1 117/178/1 94/179/1
f 117/178/1 95/177/1 120/180/1
f 118/181/13 95/182/13 99/183/13
f 95/182/13 118/181/13 120/184/13
usemtl metal
f 11/185/16 12/186/16 13/187/16
f 12/186/16 11/185/16 14/188/16
f 12/189/17 15/190/17 13/191/17
f 15/190/17 12/189/17 16/192/17
f 30/193/18 29/194/18 32/195/18
f 29/194/18 30/193/18 28/196/18
f 31/197/16 29/198/16 27/199/16
f 29/198/16 31/197/16 32/200/16
f 59/201/6 45/202/6 60/203/6
f 45/202/6 59/201/6 37/204/6
f 48/205/13 40/206/10 39/207/13
f 40/206/10 48/205/13 51/208/13
f 52/209/19 38/210/19 40/211/19
f 38/210/19 52/209/19 61/212/19
f 59/213/19 39/214/19 37/215/19
f 39/214/19 59/213/19 47/216/19
f 54/217/1 57/218/1 55/219/1
f 57/218/1 54/217/1 62/220/1
f 62/220/1 54/217/1 43/221/1
f 62/220/1 43/221/1 63/222/20
f 64/223/6 56/224/6 58/225/6
f 56/224/6 64/223/6 53/226/6
f 53/226/6 64/223/6 44/227/6
f 44/227/6 64/223/6 65/228/6
f 57/229/16 64/230/16 58/231/16
f 64/230/16 57/229/16 62/232/16
f 64/223/13 63/222/13 65/228/13
f 63/222/13 64/223/13 62/220/13
f 38/233/1 66/234/1 46/235/1
f 66/234/1 38/233/1 61/236/1
f 107/138/13 110/141/13 112/144/13
f 110/141/13 107/138/13 108/139/13
f 105/136/13 111/143/13 102/132/13
f 111/143/13 105/136/13 106/137/13
f 130/237/9 135/238/9 131/239/9
f 135/238/9 130/237/9 136/240/9
f 144/241/9 148/242/9 145/243/9
f 148/242/9 144/241/9 149/244/9
usemtl metalRed
f 16/245/13 2/246/13 10/247/13
f 2/246/13 16/245/13 14/248/13
f 14/248/13 16/245/13 12/249/13
f 16/250/6 8/25/6 15/251/6
f 8/25/6 16/250/6 10/23/6
f 11/252/10 8/253/10 3/254/10
f 8/253/10 11/252/10 15/255/10
f 15/255/10 11/252/10 13/256/10
f 3/3/1 14/257/1 11/258/1
f 14/257/1 3/3/1 2/2/1
f 27/259/13 26/260/13 17/261/13
f 26/260/13 27/259/13 28/262/13
f 28/262/13 27/259/13 29/263/13
f 26/50/1 30/264/1 23/51/1
f 30/264/1 26/50/1 28/265/1
f 30/266/10 19/267/10 23/268/10
f 19/267/10 30/266/10 31/269/10
f 31/269/10 30/266/10 32/270/10
f 27/271/6 19/29/6 31/272/6
f 19/29/6 27/271/6 17/27/6
f 67/273/13 47/274/13 59/275/13
f 47/274/13 67/273/13 49/276/13
f 49/276/13 67/273/13 50/277/13
f 68/278/13 50/277/13 67/273/13
f 61/279/13 50/277/13 68/278/13
f 50/277/13 61/279/13 52/280/13
f 65/281/16 67/282/16 69/283/16
f 67/282/16 65/281/16 68/284/16
f 68/284/16 65/281/16 63/285/16
f 68/284/16 63/285/16 70/286/16
f 70/287/10 43/288/21 41/289/10
f 43/288/21 70/287/10 63/290/10
f 65/291/10 42/292/10 44/293/13
f 42/292/10 65/291/10 69/294/10
f 46/235/1 70/295/1 41/296/1
f 70/295/1 46/235/1 66/234/1
f 70/295/1 66/234/1 68/297/1
f 68/297/1 66/234/1 61/236/1
f 69/298/6 60/203/6 42/299/6
f 60/203/6 69/298/6 67/300/6
f 60/203/6 67/300/6 59/201/6
f 45/202/6 42/299/6 60/203/6
usemtl metalDark
f 33/301/9 34/302/9 35/303/9
f 34/302/9 33/301/9 36/304/9
f 37/305/13 33/306/13 35/307/13
f 33/306/13 37/305/13 38/308/13
f 38/308/13 37/305/13 39/207/13
f 38/308/13 39/207/13 40/206/10
f 41/289/10 34/309/10 36/310/10
f 34/309/10 41/289/10 42/292/10
f 42/292/10 41/289/10 43/288/21
f 42/292/10 43/288/21 44/293/13
f 45/202/6 34/311/6 42/299/6
f 34/311/6 45/202/6 35/312/6
f 35/312/6 45/202/6 37/204/6
f 33/313/1 41/296/1 36/314/1
f 41/296/1 33/313/1 46/235/1
f 46/235/1 33/313/1 38/233/1
f 47/315/1 48/316/1 39/317/1
f 48/316/1 47/315/1 49/318/1
f 50/319/6 40/320/6 51/321/6
f 40/320/6 50/319/6 52/322/6
f 50/323/9 48/324/9 49/325/9
f 48/324/9 50/323/9 51/326/9
f 43/327/9 53/328/9 44/329/9
f 53/328/9 43/327/9 54/330/9
f 55/331/22 53/332/22 54/333/22
f 53/332/22 55/331/22 56/334/22
f 57/335/10 56/336/10 55/337/10
f 56/336/10 57/335/10 58/338/10
f 121/339/6 122/340/6 123/341/6
f 122/340/6 121/339/6 124/342/6
f 121/343/23 125/344/23 124/345/23
f 125/344/23 121/343/23 126/346/23
f 127/347/16 121/348/16 123/349/16
f 121/348/16 127/347/16 126/350/16
f 127/351/24 122/352/24 128/353/24
f 122/352/24 127/351/24 123/354/24
f 128/355/1 126/356/1 127/357/1
f 126/356/1 128/355/1 125/358/1
f 153/359/16 154/360/16 155/361/16
f 154/360/16 153/359/16 156/362/16
f 153/363/24 152/364/24 151/365/24
f 152/364/24 153/363/24 155/366/24
f 154/367/23 142/368/23 139/369/23
f 142/368/23 154/367/23 156/370/23
f 151/371/1 156/372/1 153/373/1
f 156/372/1 151/371/1 142/374/1
f 154/375/6 152/376/6 155/377/6
f 152/376/6 154/375/6 139/378/6
usemtl dark
f 103/134/13 109/140/13 101/130/13
f 109/140/13 103/134/13 104/135/13
f 129/379/13 130/380/13 131/381/13
f 130/380/13 129/379/13 132/382/13
f 128/383/25 133/384/25 134/385/25
f 133/384/25 128/383/25 122/386/25
f 134/387/26 135/388/26 136/389/26
f 135/388/26 134/387/26 133/390/26
f 130/391/1 134/392/1 136/393/1
f 134/392/1 130/391/1 128/355/1
f 128/355/1 130/391/1 137/394/1
f 137/394/1 130/391/1 132/395/1
f 125/358/1 128/355/1 137/394/1
f 124/396/27 137/397/27 138/398/27
f 137/397/27 124/396/27 125/399/27
f 137/400/16 129/401/16 138/402/16
f 129/401/16 137/400/16 132/403/16
f 124/342/6 138/404/6 122/340/6
f 131/405/6 122/340/6 138/404/6
f 131/405/6 133/406/6 122/340/6
f 133/406/6 131/405/6 135/407/6
f 131/405/6 138/404/6 129/408/6
f 139/409/27 140/410/27 141/411/27
f 140/410/27 139/409/27 142/412/27
f 143/413/13 144/414/13 145/415/13
f 144/414/13 143/413/13 146/416/13
f 147/417/26 148/418/26 149/419/26
f 148/418/26 147/417/26 150/420/26
f 151/421/25 150/422/25 147/423/25
f 150/422/25 151/421/25 152/424/25
f 144/425/1 147/426/1 149/427/1
f 147/426/1 144/425/1 151/371/1
f 151/371/1 144/425/1 140/428/1
f 140/428/1 144/425/1 146/429/1
f 142/374/1 151/371/1 140/428/1
f 139/378/6 141/430/6 152/376/6
f 145/431/6 152/376/6 141/430/6
f 145/431/6 150/432/6 152/376/6
f 150/432/6 145/431/6 148/433/6
f 145/431/6 141/430/6 143/434/6
f 140/435/16 143/436/16 141/437/16
f 143/436/16 140/435/16 146/438/16
